<svg version="1.1" id="Layer_1" xmlns="http://www.w3.org/2000/svg" xmlns:xlink="http://www.w3.org/1999/xlink" x="0px" y="0px"
	 width="100%" viewBox="0 0 1024 1024" enable-background="new 0 0 1024 1024" xml:space="preserve">
<path fill="#000000" opacity="1.000000" stroke="none" 
	d="
M477.725098,513.663818 
	C476.429199,515.837769 475.282928,517.678162 474.256836,519.583374 
	C472.589600,522.679077 470.038086,524.110046 466.538757,524.145081 
	C424.946808,524.561401 389.073822,497.038116 378.189667,459.619507 
	C364.858521,413.788544 384.803528,365.007385 426.359283,341.364624 
	C468.005615,317.670288 522.714478,322.180969 557.802551,352.595978 
	C576.960083,369.202087 589.529419,390.076111 592.892761,415.322418 
	C595.954102,438.301208 592.989502,460.791534 582.357544,481.867798 
	C580.538513,485.473816 577.897217,487.050293 574.034302,487.026459 
	C567.368347,486.985352 560.681641,486.614349 554.041382,487.011719 
	C545.016541,487.551788 540.026794,480.923401 533.955688,476.332275 
	C527.856018,471.719543 522.261719,466.444946 516.296387,461.646362 
	C511.184998,457.534790 510.874481,457.605103 507.398834,463.447998 
	C497.521454,480.052979 487.744934,496.717987 477.725098,513.663818 
M546.244934,403.265930 
	C541.736084,395.969757 536.221130,389.462219 529.476868,384.235565 
	C503.931305,364.438141 465.144440,364.426971 439.632935,385.550842 
	C415.930145,405.177002 410.169739,439.528351 427.609802,464.042877 
	C434.237793,473.359436 442.491425,481.092804 454.545990,483.281403 
	C457.755707,483.864105 459.537231,482.726196 461.079865,480.170380 
	C468.824768,467.338409 476.616486,454.534546 484.430359,441.744385 
	C489.985596,432.651306 495.281067,423.375885 501.294373,414.593994 
	C505.961395,407.778259 512.929260,407.661285 518.648254,413.578979 
	C520.960266,415.971344 523.044617,418.584015 525.228699,421.099792 
	C532.323364,429.271851 539.369385,437.486786 546.533508,445.597443 
	C549.280090,448.706848 551.009888,448.327240 552.670593,444.434692 
	C553.182312,443.235229 553.493774,441.892639 553.608032,440.590240 
	C554.738525,427.706696 553.082642,415.338715 546.244934,403.265930 
z"/>
<path fill="#000000" opacity="1.000000" stroke="none" 
	d="
M277.362396,571.003967 
	C274.988037,579.667480 269.722626,585.680908 262.899170,590.561890 
	C259.315552,593.125244 259.281677,594.704224 263.176758,596.599426 
	C291.159149,610.214600 291.838562,654.811584 266.335968,672.962769 
	C255.598557,680.604980 243.645309,684.104187 230.788330,684.266846 
	C206.311050,684.576477 181.825943,684.233704 157.346893,684.461731 
	C152.177963,684.509827 150.816055,682.609253 150.827194,677.760010 
	C150.946213,625.966980 150.887283,574.173523 150.918793,522.380188 
	C150.923477,514.683411 151.022964,514.683716 158.771652,514.683167 
	C182.586746,514.681519 206.408035,514.349792 230.214706,514.796570 
	C245.502960,515.083435 259.506378,519.680359 269.570129,532.067444 
	C278.792511,543.418823 281.093658,556.473511 277.362396,571.003967 
M204.802383,650.567688 
	C211.285233,650.573547 217.774628,650.768677 224.249481,650.544067 
	C236.166092,650.130737 243.665207,642.962097 243.715195,632.254456 
	C243.769150,620.697815 236.979553,613.801941 224.644302,613.345154 
	C216.011520,613.025513 207.359955,613.246094 198.720886,613.047424 
	C194.622177,612.953247 193.144257,614.650146 193.285095,618.717041 
	C193.520813,625.524170 193.283081,632.346313 193.361664,639.160767 
	C193.499161,651.082458 191.641296,649.360352 204.802383,650.567688 
M201.648376,580.658142 
	C207.978256,580.647034 214.319824,580.870911 220.634598,580.556519 
	C226.549301,580.262024 232.269791,578.888428 236.043167,573.701599 
	C240.004395,568.256531 240.504532,562.365417 237.539108,556.288574 
	C234.353500,549.760620 228.363464,547.772156 221.833237,547.474731 
	C213.853821,547.111206 205.843567,547.483521 197.851212,547.317139 
	C194.608810,547.249695 193.338181,548.474487 193.373489,551.664185 
	C193.452774,558.825745 193.355194,565.989014 193.356339,573.151611 
	C193.357529,580.575317 193.371323,580.575317 201.648376,580.658142 
z"/>
<path fill="#000000" opacity="1.000000" stroke="none" 
	d="
M505.456696,650.644348 
	C500.163818,650.522949 495.329773,650.554321 490.506012,650.347351 
	C487.017487,650.197571 484.941772,651.499695 483.805603,654.923706 
	C480.977417,663.447021 477.781982,671.849182 474.999725,680.386658 
	C474.009277,683.425781 472.258728,684.772644 469.244385,684.785461 
	C457.417450,684.835754 445.588898,684.995728 433.764282,684.847595 
	C429.485046,684.794067 428.861023,683.168396 430.664978,678.284851 
	C436.951904,661.265625 443.289642,644.265198 449.560974,627.240295 
	C462.562256,591.945496 475.636536,556.676880 488.404572,521.297791 
	C490.302094,516.039856 492.849457,514.371033 498.480194,514.467590 
	C512.291077,514.704529 526.133789,515.111694 539.941406,514.097412 
	C543.806091,513.813477 546.009949,515.179810 547.363464,519.033325 
	C565.674011,571.163879 584.124268,623.245483 602.496216,675.354553 
	C603.414246,677.958435 604.979431,680.503906 604.157043,683.414124 
	C603.021667,684.612061 601.620911,684.374756 600.324890,684.376770 
	C588.496399,684.395447 576.665710,684.250793 564.840576,684.448242 
	C560.990967,684.512512 559.079346,682.999634 557.981934,679.467346 
	C555.612671,671.841309 552.793152,664.350098 550.585815,656.680664 
	C549.241760,652.010620 546.542297,650.272583 541.879578,650.358826 
	C529.895081,650.580444 517.906738,650.596741 505.456696,650.644348 
M531.844971,613.729736 
	C535.868652,613.306335 536.243530,610.937927 535.136719,607.682678 
	C530.268555,593.365417 525.437134,579.035645 520.557678,564.722229 
	C520.146606,563.516296 519.830261,562.085876 517.994507,561.916260 
	C516.572388,562.281677 516.163940,563.575073 515.731567,564.832031 
	C510.758026,579.290344 505.785400,593.748901 500.822723,608.210938 
	C499.490631,612.092896 501.008545,613.966919 505.005341,613.949158 
	C513.658630,613.910767 522.311829,613.837036 531.844971,613.729736 
z"/>
<path fill="#000000" opacity="1.000000" stroke="none" 
	d="
M810.121582,512.661499 
	C833.006287,514.955078 851.503052,526.425476 857.454346,547.005188 
	C858.809387,551.690857 859.323975,556.433716 859.643677,561.252808 
	C859.825806,563.998962 858.756409,565.340881 855.992065,565.337891 
	C845.331421,565.326294 834.670532,565.292847 824.010193,565.344055 
	C821.205444,565.357544 820.405945,563.730652 819.871948,561.360168 
	C816.204956,545.082703 794.753479,537.953918 781.586670,548.591187 
	C772.705994,555.765564 773.797302,567.499084 783.842163,572.880737 
	C794.096802,578.374756 805.473450,580.377197 816.522827,583.401733 
	C826.324402,586.084595 835.986206,588.992615 844.637390,594.688782 
	C860.886292,605.387512 865.531189,620.909302 863.969543,639.271790 
	C861.769287,665.145081 841.447083,681.579407 816.973145,685.839844 
	C795.732361,689.537476 774.769165,688.549744 755.525024,677.256836 
	C738.925354,667.515747 730.780212,652.795959 730.491089,633.554871 
	C730.434692,629.805298 731.704956,628.551758 735.364685,628.601624 
	C745.856812,628.744568 756.353210,628.711975 766.846008,628.589417 
	C769.844971,628.554382 771.180542,629.405212 771.707520,632.638672 
	C773.822144,645.612488 780.682556,651.705505 793.820740,652.778076 
	C799.481262,653.240173 805.138855,653.396790 810.649780,651.661621 
	C818.144653,649.301819 822.747070,643.706360 822.813660,636.964783 
	C822.890320,629.203064 819.344238,624.091919 811.103027,621.568726 
	C796.958557,617.238098 782.614258,613.556091 768.491516,609.159607 
	C757.222717,605.651611 746.921265,600.404785 739.793152,590.338074 
	C727.450806,572.907471 731.387573,541.951721 747.650757,528.059937 
	C758.841492,518.500916 771.857605,514.043030 786.327209,512.511292 
	C794.180603,511.679901 801.889526,511.489746 810.121582,512.661499 
z"/>
<path fill="#000000" opacity="1.000000" stroke="none" 
	d="
M343.221252,643.416382 
	C344.016754,647.487122 346.965637,646.621155 349.292847,646.627869 
	C369.116943,646.684814 388.941223,646.655090 408.765472,646.656494 
	C414.994843,646.656921 415.230286,646.912231 415.238739,653.101685 
	C415.250763,661.930786 415.169067,670.762451 415.365387,679.587769 
	C415.447479,683.277283 414.136749,684.479187 410.420197,684.467590 
	C375.436615,684.358582 340.451996,684.320007 305.469147,684.519165 
	C300.606873,684.546814 300.610291,682.114990 300.612518,678.628540 
	C300.641968,632.649597 300.603058,586.670654 300.581390,540.691711 
	C300.578094,533.698608 300.719269,526.701294 300.513153,519.714172 
	C300.407074,516.117432 301.537048,514.612488 305.316437,514.616760 
	C340.466248,514.656555 375.616272,514.598450 410.765930,514.481628 
	C413.625183,514.472107 414.777374,515.766296 414.794617,518.309204 
	C414.863556,528.468628 414.941345,538.629395 414.833832,548.787781 
	C414.787354,553.178894 411.319946,552.938171 408.303955,552.943237 
	C391.145660,552.971985 373.987122,553.009949 356.828949,552.956177 
	C341.233002,552.907349 343.492706,552.707031 343.283234,566.422668 
	C343.234894,569.586121 343.275269,572.750916 343.271454,575.915100 
	C343.267426,579.256226 344.949097,580.664551 348.264984,580.643433 
	C365.754883,580.531982 383.246765,580.598572 400.734161,580.344421 
	C404.063751,580.296082 405.624207,580.646301 405.508362,584.498169 
	C405.238312,593.480225 405.173462,602.480957 405.443909,611.461548 
	C405.579529,615.965637 404.253021,617.568481 399.556427,617.496887 
	C383.234406,617.247986 366.906128,617.397034 350.580261,617.421997 
	C344.006958,617.432068 343.315369,618.090942 343.242401,624.488953 
	C343.172089,630.651855 343.196259,636.815918 343.221252,643.416382 
z"/>
<path fill="#000000" opacity="1.000000" stroke="none" 
	d="
M697.999817,446.369080 
	C686.837280,446.362183 676.174805,446.359436 665.512268,446.345367 
	C658.361145,446.335907 657.166565,447.438049 657.154175,454.798157 
	C657.130066,469.125244 657.086304,483.455078 657.353882,497.778107 
	C657.431335,501.926208 656.495667,503.818329 651.951782,503.701874 
	C640.304688,503.403381 628.648315,503.429413 616.995544,503.402405 
	C612.674194,503.392395 612.915039,500.425934 612.915466,497.520599 
	C612.918518,477.361816 612.905945,457.203003 612.923218,437.044220 
	C612.949463,406.389526 612.997742,375.734863 613.032288,345.080170 
	C613.042786,335.776184 613.036194,335.764832 622.477600,335.770294 
	C655.631470,335.789520 688.785278,335.815155 721.939148,335.843231 
	C729.876831,335.849945 730.281006,336.185150 730.091797,343.911621 
	C729.867554,353.064911 730.210266,362.218567 729.659607,371.380981 
	C729.413574,375.475616 727.870911,376.397888 724.192078,376.376129 
	C705.033569,376.262848 685.874023,376.332611 666.714844,376.326050 
	C657.871094,376.322998 657.116699,377.038666 657.021057,386.049896 
	C656.973389,390.547333 657.007446,395.046509 657.068481,399.544037 
	C657.165344,406.686432 658.132874,407.677521 665.169495,407.681671 
	C680.996582,407.690979 696.823730,407.641571 712.650818,407.642395 
	C719.086060,407.642731 719.367065,407.961578 719.367493,414.449951 
	C719.368103,423.446381 719.255493,432.445129 719.433289,441.438110 
	C719.505920,445.114349 718.163696,446.533112 714.492126,446.404846 
	C709.167419,446.218872 703.831177,446.364349 697.999817,446.369080 
z"/>
<path fill="#000000" opacity="1.000000" stroke="none" 
	d="
M816.000000,335.880737 
	C828.994080,335.844604 841.491516,335.962860 853.980591,335.694550 
	C858.597534,335.595367 860.634277,336.803772 860.453186,341.833282 
	C860.117798,351.150360 860.367859,360.487946 860.344727,369.816956 
	C860.329956,375.766602 859.858032,376.259155 853.680847,376.261658 
	C834.189941,376.269531 814.699036,376.225983 795.208130,376.209442 
	C788.952332,376.204132 788.454834,376.688416 788.415344,383.077087 
	C788.379333,388.907471 788.380920,394.738556 788.424438,400.568878 
	C788.469238,406.559265 789.387512,407.595673 795.372742,407.632050 
	C811.031372,407.727264 826.690857,407.715240 842.349976,407.707245 
	C850.125366,407.703278 850.275330,407.791718 850.295776,415.395935 
	C850.318604,423.891907 850.210022,432.389435 850.348022,440.883209 
	C850.408447,444.605408 848.773804,445.831635 845.224060,445.825378 
	C828.739075,445.796387 812.253784,445.908051 795.768616,445.981262 
	C789.286743,446.010040 788.487366,446.535675 788.468567,453.069672 
	C788.430725,466.216949 788.624817,479.367065 788.895813,492.512451 
	C789.120605,503.414124 789.230347,503.409271 778.571350,503.398376 
	C769.242310,503.388824 759.911926,503.291962 750.584900,503.427673 
	C746.970337,503.480255 745.583435,502.180115 745.589478,498.475067 
	C745.675293,445.999390 745.697144,393.523468 745.606995,341.047821 
	C745.598572,336.151031 748.304443,335.778625 752.029663,335.792328 
	C773.186218,335.870239 794.343201,335.861206 816.000000,335.880737 
z"/>
<path fill="#000000" opacity="1.000000" stroke="none" 
	d="
M583.610352,518.094971 
	C584.153503,513.987610 587.029480,514.660522 589.428345,514.656555 
	C613.582642,514.616150 637.736877,514.609802 661.891174,514.603943 
	C681.381226,514.599182 700.872375,514.720520 720.360291,514.518616 
	C724.376343,514.476990 725.614136,515.768921 725.525024,519.625488 
	C725.309753,528.947693 725.227722,538.280212 725.425720,547.601501 
	C725.516907,551.895935 723.690918,553.057068 719.746826,552.999451 
	C708.421692,552.834045 697.093018,552.904175 685.765686,552.906921 
	C676.762756,552.909119 676.378662,553.264099 676.367126,562.102661 
	C676.317749,600.082642 676.288269,638.062683 676.262512,676.042664 
	C676.257141,683.967834 676.275146,683.923523 668.597534,684.530518 
	C658.614746,685.319885 648.614319,684.696533 638.630554,685.012512 
	C634.152405,685.154175 632.530396,683.600098 632.549133,678.956848 
	C632.702698,640.810364 632.636169,602.662964 632.643372,564.515869 
	C632.645569,553.031677 632.655579,553.033508 621.080872,553.028748 
	C610.586487,553.024475 600.091614,552.950623 589.598022,553.040710 
	C585.357849,553.077087 583.322876,551.885559 583.532104,546.994019 
	C583.937622,537.516785 583.624023,528.008850 583.610352,518.094971 
z"/>
</svg>